<svg id="wave" style="transform:rotate(0deg); transition: 0.3s" viewBox="0 0 1440 360" version="1.1" xmlns="http://www.w3.org/2000/svg"><defs><linearGradient id="sw-gradient-0" x1="0" x2="0" y1="1" y2="0"><stop stop-color="rgba(243, 106, 62, 1)" offset="0%"></stop><stop stop-color="rgba(255, 179, 11, 1)" offset="100%"></stop></linearGradient></defs><path style="transform:translate(0, 0px); opacity:1" fill="url(#sw-gradient-0)" d="M0,180L30,168C60,156,120,132,180,138C240,144,300,180,360,210C420,240,480,264,540,258C600,252,660,216,720,192C780,168,840,156,900,168C960,180,1020,216,1080,204C1140,192,1200,132,1260,126C1320,120,1380,168,1440,186C1500,204,1560,192,1620,192C1680,192,1740,204,1800,180C1860,156,1920,96,1980,102C2040,108,2100,180,2160,204C2220,228,2280,204,2340,186C2400,168,2460,156,2520,144C2580,132,2640,120,2700,126C2760,132,2820,156,2880,144C2940,132,3000,84,3060,54C3120,24,3180,12,3240,24C3300,36,3360,72,3420,96C3480,120,3540,132,3600,150C3660,168,3720,192,3780,222C3840,252,3900,288,3960,288C4020,288,4080,252,4140,234C4200,216,4260,216,4290,216L4320,216L4320,360L4290,360C4260,360,4200,360,4140,360C4080,360,4020,360,3960,360C3900,360,3840,360,3780,360C3720,360,3660,360,3600,360C3540,360,3480,360,3420,360C3360,360,3300,360,3240,360C3180,360,3120,360,3060,360C3000,360,2940,360,2880,360C2820,360,2760,360,2700,360C2640,360,2580,360,2520,360C2460,360,2400,360,2340,360C2280,360,2220,360,2160,360C2100,360,2040,360,1980,360C1920,360,1860,360,1800,360C1740,360,1680,360,1620,360C1560,360,1500,360,1440,360C1380,360,1320,360,1260,360C1200,360,1140,360,1080,360C1020,360,960,360,900,360C840,360,780,360,720,360C660,360,600,360,540,360C480,360,420,360,360,360C300,360,240,360,180,360C120,360,60,360,30,360L0,360Z"></path><defs><linearGradient id="sw-gradient-1" x1="0" x2="0" y1="1" y2="0"><stop stop-color="rgba(243, 106, 62, 1)" offset="0%"></stop><stop stop-color="rgba(255, 179, 11, 1)" offset="100%"></stop></linearGradient></defs><path style="transform:translate(0, 50px); opacity:0.9" fill="url(#sw-gradient-1)" d="M0,216L30,204C60,192,120,168,180,138C240,108,300,72,360,78C420,84,480,132,540,168C600,204,660,228,720,204C780,180,840,108,900,66C960,24,1020,12,1080,48C1140,84,1200,168,1260,168C1320,168,1380,84,1440,42C1500,0,1560,0,1620,36C1680,72,1740,144,1800,180C1860,216,1920,216,1980,216C2040,216,2100,216,2160,216C2220,216,2280,216,2340,210C2400,204,2460,192,2520,186C2580,180,2640,180,2700,162C2760,144,2820,108,2880,108C2940,108,3000,144,3060,180C3120,216,3180,252,3240,270C3300,288,3360,288,3420,258C3480,228,3540,168,3600,150C3660,132,3720,156,3780,168C3840,180,3900,180,3960,168C4020,156,4080,132,4140,150C4200,168,4260,228,4290,258L4320,288L4320,360L4290,360C4260,360,4200,360,4140,360C4080,360,4020,360,3960,360C3900,360,3840,360,3780,360C3720,360,3660,360,3600,360C3540,360,3480,360,3420,360C3360,360,3300,360,3240,360C3180,360,3120,360,3060,360C3000,360,2940,360,2880,360C2820,360,2760,360,2700,360C2640,360,2580,360,2520,360C2460,360,2400,360,2340,360C2280,360,2220,360,2160,360C2100,360,2040,360,1980,360C1920,360,1860,360,1800,360C1740,360,1680,360,1620,360C1560,360,1500,360,1440,360C1380,360,1320,360,1260,360C1200,360,1140,360,1080,360C1020,360,960,360,900,360C840,360,780,360,720,360C660,360,600,360,540,360C480,360,420,360,360,360C300,360,240,360,180,360C120,360,60,360,30,360L0,360Z"></path></svg>